<svg id="visual" viewBox="0 0 900 600" width="900" height="600" xmlns="http://www.w3.org/2000/svg" xmlns:xlink="http://www.w3.org/1999/xlink" version="1.1"><rect x="0" y="0" width="900" height="600" fill="#f4f4f5"></rect><path d="M0 67L25 72.8C50 78.7 100 90.3 150 109.5C200 128.7 250 155.3 300 148C350 140.7 400 99.3 450 80.8C500 62.3 550 66.7 600 84.8C650 103 700 135 750 141C800 147 850 127 875 117L900 107L900 0L875 0C850 0 800 0 750 0C700 0 650 0 600 0C550 0 500 0 450 0C400 0 350 0 300 0C250 0 200 0 150 0C100 0 50 0 25 0L0 0Z" fill="#6366f1" stroke-linecap="round" stroke-linejoin="miter"></path></svg>