<svg id="visual" viewBox="0 0 900 600" width="900" height="600" xmlns="http://www.w3.org/2000/svg" xmlns:xlink="http://www.w3.org/1999/xlink" version="1.1"><rect x="0" y="0" width="900" height="600" fill="#f4f4f5"></rect><path d="M0 86L25 91.5C50 97 100 108 150 102.3C200 96.7 250 74.3 300 73.7C350 73 400 94 450 108.2C500 122.3 550 129.7 600 125.5C650 121.3 700 105.7 750 104.2C800 102.7 850 115.3 875 121.7L900 128L900 0L875 0C850 0 800 0 750 0C700 0 650 0 600 0C550 0 500 0 450 0C400 0 350 0 300 0C250 0 200 0 150 0C100 0 50 0 25 0L0 0Z" fill="#6366f1" stroke-linecap="round" stroke-linejoin="miter"></path></svg>