<svg id="visual" viewBox="0 0 900 600" width="900" height="600" xmlns="http://www.w3.org/2000/svg" xmlns:xlink="http://www.w3.org/1999/xlink" version="1.1"><rect x="0" y="0" width="900" height="600" fill="#f4f4f5"></rect><path d="M0 117L25 106.7C50 96.3 100 75.7 150 89.7C200 103.7 250 152.3 300 165.5C350 178.7 400 156.3 450 137.8C500 119.3 550 104.7 600 111C650 117.3 700 144.7 750 147.3C800 150 850 128 875 117L900 106L900 0L875 0C850 0 800 0 750 0C700 0 650 0 600 0C550 0 500 0 450 0C400 0 350 0 300 0C250 0 200 0 150 0C100 0 50 0 25 0L0 0Z" fill="#a78bfa" stroke-linecap="round" stroke-linejoin="miter"></path></svg>