<svg id="visual" viewBox="0 0 900 600" width="900" height="600" xmlns="http://www.w3.org/2000/svg" xmlns:xlink="http://www.w3.org/1999/xlink" version="1.1"><rect x="0" y="0" width="900" height="600" fill="#f4f4f5"></rect><path d="M0 417L25 421.8C50 426.7 100 436.3 150 430.8C200 425.3 250 404.7 300 413.8C350 423 400 462 450 478.3C500 494.7 550 488.3 600 472.5C650 456.7 700 431.3 750 427.2C800 423 850 440 875 448.5L900 457L900 601L875 601C850 601 800 601 750 601C700 601 650 601 600 601C550 601 500 601 450 601C400 601 350 601 300 601C250 601 200 601 150 601C100 601 50 601 25 601L0 601Z" fill="#8b5cf6" stroke-linecap="round" stroke-linejoin="miter"></path></svg>